<svg width="40" height="48" viewBox="0 0 40 48" fill="none" xmlns="http://www.w3.org/2000/svg">
<path d="M37.0979 48H2.06646C0.934826 48 0 47.075 0 45.9554V20.8844C0 19.716 0.442812 18.5477 1.27924 17.6714L18.0569 0.632848C18.8933 -0.24342 20.271 -0.24342 21.1074 0.632848L37.8851 17.6227C38.7215 18.499 39.1643 19.6186 39.1643 20.8357V45.9067C39.2135 47.075 38.2787 48 37.0979 48Z" fill="#2F3556"/>
<path d="M19.5821 13.5335C21.8375 13.5335 23.6658 11.7244 23.6658 9.4929C23.6658 7.26136 21.8375 5.45233 19.5821 5.45233C17.3268 5.45233 15.4984 7.26136 15.4984 9.4929C15.4984 11.7244 17.3268 13.5335 19.5821 13.5335Z" fill="#2AC6EA"/>
<path d="M25.4371 23.9026V44.641C31.2429 44.641 35.917 40.0162 35.917 34.2718C35.917 28.5274 31.1937 23.9026 25.4371 23.9026Z" fill="#ED6673"/>
<path d="M21.255 37.9716H3.3457V44.641H21.255V37.9716Z" fill="#F7B86E"/>
<path d="M14.6128 21.5659V25.8012H7.92143V30.0365H3.3457V34.2718H21.255V30.0365V25.8012V21.5659H14.6128Z" fill="#2AC6EA"/>
<path d="M25.4371 12.1217L34.4902 21.0791H25.4371V12.1217Z" fill="#F7B86E"/>
<path d="M15.4984 15.286L7.18341 23.5618V15.286H15.4984Z" fill="#ED6673"/>
</svg>
